<svg version="1.2" xmlns="http://www.w3.org/2000/svg" viewBox="0 0 440 200">
	<title>ChatGPT Image Jun 3, 2025, 03_56_27 PM</title>
	<style>
		.s0 { fill: #FCA311; stroke: #FCA311; stroke-width: 10px ;} 
	</style>
	<path id="Path 0" fill-rule="evenodd" class="s0" d="m189.5 0c4.1-0.1 5.2 0.4 8.8 3.7 4.1 3.7 4.1 3.7 3.4 9.2-0.4 3.1-2.2 10.7-4 17-1.8 6.4-9.1 28-16.3 48-7.2 20.1-17.5 48.9-23 64-5.5 15.2-15.2 41.3-21.5 58-6.3 16.8-13.3 36.2-15.5 43-2.2 6.9-4.9 16.1-6.1 20.5-1.1 4.4-2.4 11.3-3.6 22.4l3.8 3.5c2.5 2.4 3.6 4.4 3.5 5.9-0.2 1.3-1.3 2.6-2.8 3.1-1.8 0.7-3.5 0.4-6.4-1-2.4-1.1-4.6-3.2-5.8-5.4-1.3-2.5-1.8-5.6-1.8-11.5 0-4.4 0.9-12.2 2.1-17.5 1.1-5.2 4.6-17.6 7.9-27.5 3.2-9.9 9.8-28.5 14.5-41.5 4.8-12.9 12.7-34.7 17.7-48.5 4.9-13.7 15.2-43 22.8-65 7.6-22 15.4-45.1 17.3-51.5 1.9-6.3 3.8-12.7 4.1-14.2 0.3-1.5 0.2-3-0.4-3.3-0.5-0.2-3.5 1-6.6 2.8-3.1 1.8-10.4 7.3-16.3 12.3-5.8 5-15.8 14.5-22.1 21-6.3 6.6-16.2 17.6-22.1 24.4-5.8 6.9-15.7 19.1-22 27-6.3 8-17.8 22.9-25.5 33-7.7 10.2-18.6 24.8-24.1 32.5-5.5 7.7-14 20.1-19 27.5-4.9 7.5-11.6 17.8-14.9 23-3.2 5.3-6.6 10.3-7.6 11.3-1 0.9-2.9 1.7-4.3 1.7-1.4 0-2.8-0.5-3.1-1.2-0.4-0.7-0.6-3.1-0.6-5.3 0-2.2 2.1-10.7 4.7-19 2.5-8.2 5.4-17.4 6.5-20.5 1-3 5.8-16.5 10.6-30 4.7-13.4 14.6-42 21.9-63.5 7.3-21.4 14.8-42.8 16.6-47.5 3.4-8.4 3.5-8.5 6.9-8.5 3.3 0 3.5 0.3 3.8 3.5 0.2 2-1.2 8.8-3.3 16-2 6.9-8.4 26-14 42.5-5.7 16.5-15.3 43.8-21.4 60.5-6.1 16.8-10.9 30.6-10.8 30.7 0.1 0.1 3.3-4.4 7.1-10 3.8-5.6 10.8-15.6 15.5-22.2 4.7-6.6 14.6-20.1 22-30 7.4-9.9 20.5-26.7 29-37.5 8.6-10.7 20.1-24.6 25.7-31 5.6-6.3 15.9-17.3 23-24.5 7.1-7.2 15.6-15.1 18.9-17.6 3.3-2.6 8.3-5.9 11-7.6 2.8-1.6 6.4-3.4 8-4 1.7-0.6 5.2-1.2 7.8-1.2zm189.2 12.9c7.2 0 16.6 0.3 21 0.8 6.3 0.7 8.5 1.4 10.3 3.2 1.6 1.6 2.2 3.4 2.2 6.3 0 2.6-1.1 5.9-3.2 9.5-2.3 4-19.2 21.5-60.8 63-31.7 31.6-65.2 66-74.5 76.4-9.4 10.4-21 23.7-25.8 29.5-4.9 5.8-10.8 13.3-13.3 16.6-2.4 3.3-4.3 6.1-4.2 6.3 0.2 0.1 6.8-2 14.8-4.8 8-2.8 23.7-8 35-11.6 11.3-3.6 27.5-8.3 36-10.4 8.5-2.2 21.1-5 28-6.4 6.9-1.4 17.5-3.2 23.5-4.1 6.1-0.8 18.7-2.2 28-3 9.4-0.8 21.5-1.5 27-1.5 5.5 0 11.5 0.3 13.3 0.7 2.7 0.7 3.2 1.3 3.2 3.5 0 2.3-0.5 2.9-2.7 3.3-1.6 0.2-10.9 0.9-20.8 1.5-9.9 0.6-23.2 1.7-29.5 2.6-6.3 0.8-15.5 2.1-20.5 3-4.9 0.8-14.8 2.8-22 4.4-7.1 1.6-19.7 4.7-28 7-8.2 2.3-19.9 5.7-26 7.7-6 1.9-16.4 5.5-23 8-6.6 2.4-15.8 5.9-20.5 7.8-4.7 1.8-11.4 4.2-15 5.4-3.6 1.2-7.8 2.1-9.5 2.1-1.6 0.1-4.3-1-5.9-2.2-2.6-2.1-2.8-2.8-2.4-6.8 0.2-2.8 1.7-6.8 3.8-10.3 1.9-3.2 6.6-9.7 10.4-14.5 3.9-4.8 14-16.6 22.5-26.2 8.5-9.6 45.9-48 83.1-85.2 37.1-37.3 67.6-68.3 67.8-69 0.2-0.8-1.1-1.6-3-2.1-1.8-0.4-7.8-0.7-13.3-0.7-5.5 0-22.1 0.9-37 2-14.8 1.1-31.9 2.4-38 2.9-6 0.5-16.1 1.6-22.3 2.3-8.2 0.9-11.7 1-13 0.2-0.9-0.6-1.8-2.3-1.9-3.8-0.2-1.6 0.3-2.9 1.5-3.5 0.9-0.5 4.4-1.4 7.7-2 3.3-0.6 13.9-2 23.5-3 9.6-1.1 24.7-2.5 33.5-3.1 8.8-0.6 18.5-1.2 21.5-1.3 3-0.2 11.4-0.4 18.5-0.5zm-191.9 174c2.2 0 4.5 0.6 5.2 1.3 0.7 0.7 1.2 2.8 1.2 4.7-0.1 2.7-1 4.4-3.9 7.3-2.3 2.2-4.8 3.7-6.2 3.7-1.3 0-3.4-1-4.7-2.2-1.3-1.4-2.2-3.3-2.1-5 0.1-1.4 1.7-4.2 3.4-6.2 2.7-2.9 4-3.6 7.1-3.6z"/>
</svg>